# xmcd
#
# Track frame offsets: 
#        150
#        14608
#        28822
#        47297
#        61313
#        83220
#        105170
#        121980
#        145217
#        164519
#        185608
#        209371
#        223521
#        239847
#
# Disc length: 3554 seconds
#
# Revision: 1
# Processed by: cddbd v1.5.2PL0 Copyright (c) Steve Scherf et al.
# Submitted via: ExactAudioCopy v1.1
#
DISCID=c60de00e
DTITLE=Gerry Mulligan - That old feeling
DYEAR=2007
DGENRE=Jazz
TTITLE0=Lullaby of the leaves
TTITLE1=Frenesi
TTITLE2=Moonlight in Vermont
TTITLE3=I'm beginning to see the light
TTITLE4=Bernie's tune
TTITLE5=Walkin' shoes
TTITLE6=Makin' whoopee
TTITLE7=Five brothers
TTITLE8=Laura
TTITLE9=Nights of the turntable
TTITLE10=The lady is a tramp
TTITLE11=Gerry Mulligan - Paul Desmond - Line for lyons
TTITLE12=Gerry Mulligan - Stan Getz - Anything goes
TTITLE13=Gerry Mulligan - Stan Getz - That old feeling
EXTD=
EXTT0=
EXTT1=
EXTT2=
EXTT3=
EXTT4=
EXTT5=
EXTT6=
EXTT7=
EXTT8=
EXTT9=
EXTT10=
EXTT11=
EXTT12=
EXTT13=
PLAYORDER=
